<svg width="24" height="24" viewBox="0 0 24 24" fill="none" xmlns="http://www.w3.org/2000/svg">
<path d="M3.9996 3H19.9997C20.552 3 20.9997 3.44764 20.9997 3.99987L20.9999 5.58569C21 5.85097 20.8946 6.10538 20.707 6.29295L14.2925 12.7071C14.105 12.8946 13.9996 13.149 13.9996 13.4142V19.7192C13.9996 20.3698 13.3882 20.8472 12.7571 20.6894L10.7571 20.1894C10.3119 20.0781 9.9996 19.6781 9.9996 19.2192V13.4142C9.9996 13.149 9.89424 12.8946 9.70671 12.7071L3.29249 6.29289C3.10495 6.10536 2.9996 5.851 2.9996 5.58579V4C2.9996 3.44772 3.44731 3 3.9996 3Z" stroke="#21272A" stroke-width="1.5" stroke-linecap="round" stroke-linejoin="round"/>
</svg>
